0
SECTION
2
HEADER
9
$INSUNITS
70
4
9
$ACADVER
1
AC1014
9
$HANDSEED
5
FFFF
0
ENDSEC
0
SECTION
2
TABLES
0
TABLE
2
VPORT
5
8
100
AcDbSymbolTable
0
ENDTAB
0
TABLE
2
LTYPE
5
5
100
AcDbSymbolTable
0
LTYPE
5
14
100
AcDbSymbolTableRecord
100
AcDbLinetypeTableRecord
2
BYBLOCK
70
0
0
LTYPE
5
15
100
AcDbSymbolTableRecord
100
AcDbLinetypeTableRecord
2
BYLAYER
70
0
0
ENDTAB
0
TABLE
2
LAYER
5
2
100
AcDbSymbolTable
70
2
0
LAYER
5
50
100
AcDbSymbolTableRecord
100
AcDbLayerTableRecord
2
0
70
0
6
CONTINUOUS
0
ENDTAB
0
TABLE
2
STYLE
5
3
100
AcDbSymbolTable
70
1
0
STYLE
5
11
100
AcDbSymbolTableRecord
100
AcDbTextStyleTableRecord
2
STANDARD
70
0
0
ENDTAB
0
TABLE
2
VIEW
5
6
100
AcDbSymbolTable
70
0
0
ENDTAB
0
TABLE
2
UCS
5
7
100
AcDbSymbolTable
70
0
0
ENDTAB
0
TABLE
2
APPID
5
9
100
AcDbSymbolTable
70
2
0
APPID
5
12
100
AcDbSymbolTableRecord
100
AcDbRegAppTableRecord
2
ACAD
70
0
0
ENDTAB
0
TABLE
2
DIMSTYLE
5
A
100
AcDbSymbolTable
70
1
0
ENDTAB
0
TABLE
2
BLOCK_RECORD
5
1
100
AcDbSymbolTable
70
1
0
BLOCK_RECORD
5
1F
100
AcDbSymbolTableRecord
100
AcDbBlockTableRecord
2
*MODEL_SPACE
0
BLOCK_RECORD
5
1B
100
AcDbSymbolTableRecord
100
AcDbBlockTableRecord
2
*PAPER_SPACE
0
ENDTAB
0
ENDSEC
0
SECTION
2
BLOCKS
0
BLOCK
5
20
100
AcDbEntity
100
AcDbBlockBegin
2
*MODEL_SPACE
0
ENDBLK
5
21
100
AcDbEntity
100
AcDbBlockEnd
0
BLOCK
5
1C
100
AcDbEntity
100
AcDbBlockBegin
2
*PAPER_SPACE
0
ENDBLK
5
1D
100
AcDbEntity
100
AcDbBlockEnd
0
ENDSEC
0
SECTION
2
ENTITIES
0
LWPOLYLINE
5
100
100
AcDbEntity
8
0
100
AcDbPolyline
90
32
70
1
43
0.0
10
-8.4851195764375174
20
-27.901093034586975
42
-0.013966354325295253
10
-8.6408946049447639
20
-28.132884605240026
42
0.027938158241328677
10
-8.760240809518363
20
-28.321652174911517
42
-0.013966354325322125
10
-8.9028312924450841
20
-28.561779528437171
10
-10.255275185668427
20
-30.700913720034919
42
-0.040953893882401032
10
-15.175559204666618
20
-37.232007144186056
10
-19.607695362390682
20
-42.209436253706684
42
0.021258688665153947
10
-24.985191200320216
20
-48.791709434661627
10
-41.832044649928363
20
-71.301559457756994
42
0.15552023987151462
10
-45.813492655299356
20
-82.778373304098892
42
-0.24195687105815258
10
-47.128852236722231
20
-85.185311804763657
42
0.16777151897791071
10
-51.039821383952102
20
-90.411005120035242
42
-0.21234180696439225
10
-52.663042620232794
20
-92.230293840979101
10
-62.319494036373591
20
-96.586959828635969
42
-0.59030245615458521
10
-65.122863391931233
20
-94.487968512422853
10
-63.66149796342232
20
-83.997546975260491
42
-0.21223222323508051
10
-62.373866075759061
20
-81.928475352465426
42
0.16777151897791071
10
-58.462896928529133
20
-76.702782037193884
42
-0.2420833657810853
10
-56.523116237350031
20
-74.76170705492278
42
0.15554981574746271
10
-46.629760606364712
20
-67.708751689018555
10
-29.775410415537671
20
-45.20529950685804
42
0.021258688665141523
10
-24.973849014624893
20
-38.191827483036214
10
-12.156084815480156
20
-17.647703876351006
42
-0.2588009471685877
10
-7.9140239078371666
20
-15.29438463879357
10
2.9872692287919516
20
-15.294384588023487
10
2.9872692427637135
20
-18.294384588023483
10
-2.0127308317420969
20
-18.294384611309752
42
0.99999999999999989
10
-2.0127308177703283
20
-21.294384611309756
10
2.9872692567354742
20
-21.29438458802349
10
2.9872692707072335
20
-24.29438458802348
10
-3.4505118304507865
20
-24.294384618005861
42
0.25720909932992658
10
-7.6766965830173284
20
-26.622426115268595
0
CIRCLE
5
101
100
AcDbEntity
8
0
100
AcDbCircle
10
-14.80403198424815
20
-30.200903028425216
30
0
40
1.5000000000000002
210
9.8607613152626476e-32
220
4.5924056385305024e-40
230
1
0
CIRCLE
5
102
100
AcDbEntity
8
0
100
AcDbCircle
10
-7.0127307502504177
20
-19.794384634596021
30
0
40
1.5000000000000022
210
9.8607613152626498e-32
220
4.5924056385305032e-40
230
1
0
ARC
5
103
100
AcDbEntity
8
0
100
AcDbCircle
10
-59.205482106710065
20
-84.197821610534845
30
0
40
1.0500000000000171
210
-0
220
0
230
1
100
AcDbArc
50
-81.811605264057135
51
98.188393882168882
0
LINE
5
104
100
AcDbEntity
8
0
100
AcDbLine
10
-59.055932232595303
20
-85.237116965644404
30
0
11
-60.540639882751812
21
-85.450759642951141
31
0
0
ARC
5
105
100
AcDbEntity
8
0
100
AcDbCircle
10
-60.690189756866573
20
-84.411464287841625
30
0
40
1.0500000000000083
210
9.7602318407584582e-32
220
1.4044529651167508e-32
230
1
100
AcDbArc
50
98.188394735939397
51
278.18839473594318
0
LINE
5
106
100
AcDbEntity
8
0
100
AcDbLine
10
-60.839739630981271
20
-83.372168932732066
30
-2.695407615284538e-46
11
-59.355031965338114
21
-83.158526253196811
31
0
0
LWPOLYLINE
5
107
100
AcDbEntity
8
0
100
AcDbPolyline
90
6
70
1
43
0.0
10
-61.178766539607423
20
-87.823496663110262
42
-0.65449601966771742
10
-59.412077206621831
20
-87.335478929622369
42
0.12409013065896568
10
-57.064142917373928
20
-89.093230930532158
42
-0.65454664805933216
10
-57.034898058844881
20
-90.925907994813699
10
-60.27954457664854
20
-92.40464567801105
42
-0.59287107301398512
10
-61.684156386621858
20
-91.352945014035697
0
LWPOLYLINE
5
108
100
AcDbEntity
8
0
100
AcDbPolyline
90
4
70
1
43
0.0
10
-56.645225222805692
20
-77.767612836616678
42
-0.9999999925494194
10
-54.566634510358163
20
-77.468513103873889
10
-54.352991833051419
20
-78.953220754030383
42
-0.99999999999999989
10
-56.431582543270444
20
-79.252320502259877
0
CIRCLE
5
109
100
AcDbEntity
8
0
100
AcDbCircle
10
-54.751359156240547
20
-83.556893578614364
30
0
40
2.5000000000000009
210
9.7604862182587868e-32
220
1.4026840341861262e-32
230
1
0
LWPOLYLINE
5
110
100
AcDbEntity
8
0
100
AcDbPolyline
90
4
70
1
43
0.0
10
-55.149726479429908
20
-88.160566403198715
42
-0.99999999999999989
10
-53.071135769210819
20
-87.861466654969263
10
-52.857493091904047
20
-89.346174305125757
42
-0.99999999999999989
10
-54.936083802123086
20
-89.645274053355223
0
LINE
5
111
100
AcDbEntity
8
0
100
AcDbLine
10
-50.446786079885911
20
-81.876670191584708
30
0
11
-48.962078429729445
21
-81.663027514277957
31
1.2325951644078309e-31
0
ARC
5
112
100
AcDbEntity
8
0
100
AcDbCircle
10
-48.812528555614698
20
-82.70232286938743
30
0
40
1.0499999999999505
210
1.2569137770993385e-31
220
-1.8116010716399096e-31
230
1
100
AcDbArc
50
-81.811605264055459
51
98.188394735942737
0
LINE
5
113
100
AcDbEntity
8
0
100
AcDbLine
10
-48.662978681499915
20
-83.741618224496918
30
-2.0707598762050641e-31
11
-50.147686331656431
21
-83.955260901803754
31
0
0
ARC
5
114
100
AcDbEntity
8
0
100
AcDbCircle
10
-50.297236205771171
20
-82.915965546694267
30
-9.5791887209704292e-46
40
1.0500000000000145
210
-9.7602318407584385e-32
220
-1.4044529651172317e-32
230
1
100
AcDbArc
50
98.188394735941685
51
278.18839473594227
0
ENDSEC
0
SECTION
2
OBJECTS
0
DICTIONARY
5
C
100
AcDbDictionary
3
ACAD_GROUP
350
D
3
ACAD_MLINESTYLE
350
17
0
DICTIONARY
5
D
100
AcDbDictionary
0
DICTIONARY
5
1A
330
C
100
AcDbDictionary
0
DICTIONARY
5
17
100
AcDbDictionary
0
ENDSEC
0
EOF
