0
SECTION
2
HEADER
9
$INSUNITS
70
4
9
$ACADVER
1
AC1014
9
$HANDSEED
5
FFFF
0
ENDSEC
0
SECTION
2
TABLES
0
TABLE
2
VPORT
5
8
100
AcDbSymbolTable
0
ENDTAB
0
TABLE
2
LTYPE
5
5
100
AcDbSymbolTable
0
LTYPE
5
14
100
AcDbSymbolTableRecord
100
AcDbLinetypeTableRecord
2
BYBLOCK
70
0
0
LTYPE
5
15
100
AcDbSymbolTableRecord
100
AcDbLinetypeTableRecord
2
BYLAYER
70
0
0
ENDTAB
0
TABLE
2
LAYER
5
2
100
AcDbSymbolTable
70
2
0
LAYER
5
50
100
AcDbSymbolTableRecord
100
AcDbLayerTableRecord
2
0
70
0
6
CONTINUOUS
0
ENDTAB
0
TABLE
2
STYLE
5
3
100
AcDbSymbolTable
70
1
0
STYLE
5
11
100
AcDbSymbolTableRecord
100
AcDbTextStyleTableRecord
2
STANDARD
70
0
0
ENDTAB
0
TABLE
2
VIEW
5
6
100
AcDbSymbolTable
70
0
0
ENDTAB
0
TABLE
2
UCS
5
7
100
AcDbSymbolTable
70
0
0
ENDTAB
0
TABLE
2
APPID
5
9
100
AcDbSymbolTable
70
2
0
APPID
5
12
100
AcDbSymbolTableRecord
100
AcDbRegAppTableRecord
2
ACAD
70
0
0
ENDTAB
0
TABLE
2
DIMSTYLE
5
A
100
AcDbSymbolTable
70
1
0
ENDTAB
0
TABLE
2
BLOCK_RECORD
5
1
100
AcDbSymbolTable
70
1
0
BLOCK_RECORD
5
1F
100
AcDbSymbolTableRecord
100
AcDbBlockTableRecord
2
*MODEL_SPACE
0
BLOCK_RECORD
5
1B
100
AcDbSymbolTableRecord
100
AcDbBlockTableRecord
2
*PAPER_SPACE
0
ENDTAB
0
ENDSEC
0
SECTION
2
BLOCKS
0
BLOCK
5
20
100
AcDbEntity
100
AcDbBlockBegin
2
*MODEL_SPACE
0
ENDBLK
5
21
100
AcDbEntity
100
AcDbBlockEnd
0
BLOCK
5
1C
100
AcDbEntity
100
AcDbBlockBegin
2
*PAPER_SPACE
0
ENDBLK
5
1D
100
AcDbEntity
100
AcDbBlockEnd
0
ENDSEC
0
SECTION
2
ENTITIES
0
CIRCLE
5
100
100
AcDbEntity
8
0
100
AcDbCircle
10
-7.0127300204263774
20
10.205616311745846
30
0
40
1.500000000000006
210
1.9721522630525295e-31
220
-8.5386734857105997e-40
230
1
0
CIRCLE
5
101
100
AcDbEntity
8
0
100
AcDbCircle
10
-16.912224977313787
20
11.619829904773496
30
0
40
1.500000000000006
210
1.9721522630525295e-31
220
-8.5386734857105997e-40
230
1
0
CIRCLE
5
102
100
AcDbEntity
8
0
100
AcDbCircle
10
-77.012730147980164
20
20.205615478472918
30
0
40
2.5000000000000067
210
-8.8746851043905254e-32
220
-6.6560139935967538e-32
230
1
0
LWPOLYLINE
5
103
100
AcDbEntity
8
0
100
AcDbPolyline
90
4
70
1
43
0.0
10
-81.182729405579551
20
15.765614781218209
10
-79.982729556066317
20
16.665614981866959
42
0.99999999999999989
10
-81.24272983697449
20
18.345614771185826
10
-82.442729686487866
20
17.445614570536939
42
0.99999999999999989
0
LWPOLYLINE
5
104
100
AcDbEntity
8
0
100
AcDbPolyline
90
4
70
1
43
0.0
10
-72.782730458986038
20
22.065616185760181
10
-71.582730609472634
20
22.965616386408779
42
0.99999999999999989
10
-72.842730890381219
20
24.645616175727653
10
-74.042730739894438
20
23.745615975078806
42
0.99999999999999989
0
LWPOLYLINE
5
105
100
AcDbEntity
8
0
100
AcDbPolyline
90
4
70
1
43
0.0
10
-72.57272945072566
20
16.035616220873695
10
-73.472729651374479
20
17.235616070387003
42
0.99999999999999989
10
-75.15272944069315
20
15.975615789478681
10
-74.252729240044289
20
14.775615939965308
42
0.99999999999999989
0
LWPOLYLINE
5
106
100
AcDbEntity
8
0
100
AcDbPolyline
90
6
70
1
43
0.0
10
-82.984561342031157
20
19.624898516639465
42
-0.12413608661173256
10
-82.545896965496084
20
22.525974280370246
42
0.6530370379994257
10
-83.807373408960558
20
23.853385467225358
10
-87.15681999218657
20
22.645321995851198
42
0.59303835672806449
10
-87.426141568495012
20
20.911162815961607
10
-84.588470091226611
20
18.734637896316514
42
0.65589536193180309
0
LWPOLYLINE
5
107
100
AcDbEntity
8
0
100
AcDbPolyline
90
4
70
1
43
0.0
10
-81.45273084523501
20
24.375614736072308
42
-0.99999999999999989
10
-79.77273105591641
20
25.635615016980505
10
-78.872730845879772
20
24.435615154950241
42
-0.99999999999999989
10
-80.552730653973882
20
23.175614899075736
0
LINE
5
108
100
AcDbEntity
8
0
100
AcDbLine
10
-43.480982372010963
20
18.438316687545569
30
0
11
-60.086503718248814
21
20.814299171803331
31
0
0
ARC
5
109
100
AcDbEntity
8
0
100
AcDbCircle
10
-57.253677349190532
20
40.612660082817101
30
-2.299005293032903e-44
40
19.999999999999751
210
-1.952269113769349e-31
220
2.793382467286727e-32
230
1
100
AcDbArc
50
228.32942525241188
51
261.85716658550268
0
ARC
5
110
100
AcDbEntity
8
0
100
AcDbCircle
10
-72.212730749926919
20
23.805616281068218
30
0
40
2.4999999999999947
210
4.3205828295124443e-31
220
7.8206586773477114e-31
230
1
100
AcDbArc
50
48.329425252410267
51
101.7192468067595
0
ARC
5
111
100
AcDbEntity
8
0
100
AcDbCircle
10
-74.751683557185913
20
36.045049219015766
30
0
40
10.000000000000123
210
0
220
0
230
1
100
AcDbArc
50
261.88337441440751
51
281.71924680675801
0
ARC
5
112
100
AcDbEntity
8
0
100
AcDbCircle
10
-74.74829930125388
20
36.044565978439358
30
8.4844242957166659e-46
40
9.9999999999997282
210
-1.9523013795553939e-31
220
2.7911265118110015e-32
230
1
100
AcDbArc
50
242.02057063866459
51
261.86378737658316
0
ARC
5
113
100
AcDbEntity
8
0
100
AcDbCircle
10
-80.61273095057571
20
25.005614876526408
30
1.1016067029115994e-45
40
2.4999999999999769
210
1.2562873066149524e-31
220
2.3647805920423428e-31
230
1
100
AcDbArc
50
62.020570638662335
51
108.00598740981538
0
LINE
5
114
100
AcDbEntity
8
0
100
AcDbLine
10
-81.385521895844846
20
27.383175423580845
30
1.7129163934538874e-31
11
-91.488569865032616
21
24.099328877640914
31
0
0
ARC
5
115
100
AcDbEntity
8
0
100
AcDbCircle
10
-90.870337108817296
20
22.197280439997321
30
0
40
2.0000000000000044
210
8.5374093550309719e-46
220
2.7749588349275323e-46
230
1
100
AcDbArc
50
108.0059874098153
51
235.61880898369049
0
LINE
5
116
100
AcDbEntity
8
0
100
AcDbLine
10
-91.999729320428344
20
20.546682599106845
30
-2.4072975867439926e-31
11
-83.224469810547475
21
14.542367374764485
31
0
0
ARC
5
117
100
AcDbEntity
8
0
100
AcDbCircle
10
-81.812729546033708
20
16.605614675877582
30
8.5528470722950261e-48
40
2.4999999999999809
210
-1.0048256708913184e-45
220
6.8338875838168661e-46
230
1
100
AcDbArc
50
235.61880898369128
51
281.71924680675892
0
ARC
5
118
100
AcDbEntity
8
0
100
AcDbCircle
10
-79.273776738774586
20
4.3661817379303161
30
-8.0547292588045637e-44
40
9.9999999999999201
210
-1.9310420293642052e-31
220
-4.0057612196965526e-32
230
1
100
AcDbArc
50
81.883374414408209
51
101.71924680675922
0
ARC
5
119
100
AcDbEntity
8
0
100
AcDbCircle
10
-79.277160994706747
20
4.3666649785065701
30
4.2340014146689297e-44
40
9.9999999999996643
210
-1.9523013795553736e-31
220
2.7911265118113003e-32
230
1
100
AcDbArc
50
62.020570638664545
51
81.863787376583218
0
ARC
5
120
100
AcDbEntity
8
0
100
AcDbCircle
10
-73.412729345384975
20
15.405616080419504
30
-1.3684555315672042e-47
40
2.5000000000000036
210
1.2562873066148756e-31
220
2.3647805920423717e-31
230
1
100
AcDbArc
50
242.02057063866374
51
295.41036577816857
0
ARC
5
121
100
AcDbEntity
8
0
100
AcDbCircle
10
-63.758011856618708
20
-4.9176816394910112
30
1.4888796183451181e-44
40
20.000000000000217
210
-4.0090726874890279e-32
220
1.9929235923183115e-31
230
1
100
AcDbArc
50
81.882630404970087
51
115.41036577816787
0
LINE
5
122
100
AcDbEntity
8
0
100
AcDbLine
10
-60.933984702877282
20
14.881936302149676
30
-3.8326952701705283e-30
11
-39.901514329783659
21
11.882066929975487
31
0
0
ARC
5
123
100
AcDbEntity
8
0
100
AcDbCircle
10
-54.02165009848774
20
-87.116022778210152
30
0
40
99.999999999983018
210
0
220
-0
230
1
100
AcDbArc
50
76.763010392592903
51
81.882630404970399
0
LINE
5
124
100
AcDbEntity
8
0
100
AcDbLine
10
-31.123714527415807
20
10.227105107530416
30
0
11
-14.16104123892616
21
6.2369908744139586
31
-3.944304526105059e-30
0
ARC
5
125
100
AcDbEntity
8
0
100
AcDbCircle
10
-9.5814541247111187
20
25.705616451565504
30
0
40
20.000000000000092
210
-4.5158215455726556e-32
220
-1.9197546995250706e-31
230
1
100
AcDbArc
50
256.76301039259329
51
270.00000073083038
0
LINE
5
126
100
AcDbEntity
8
0
100
AcDbLine
10
-9.5814538696031892
20
5.7056164515654126
30
0
11
2.9872700369728857
21
5.7056166118844391
31
0
0
LINE
5
127
100
AcDbEntity
8
0
100
AcDbLine
10
2.9872700369728857
20
5.7056166118844391
30
0
11
2.987269998706708
21
8.7056164094974093
31
0
0
LINE
5
128
100
AcDbEntity
8
0
100
AcDbLine
10
2.987269998706708
20
8.7056164094974093
30
0
11
-2.0127299267874865
21
8.7056163457204434
31
0
0
ARC
5
129
100
AcDbEntity
8
0
100
AcDbCircle
10
-2.0127299459205776
20
10.205616479830894
30
-2.7369110631344083e-47
40
1.5000001341104576
210
-2.5155577613656915e-39
220
1.9721522630525291e-31
230
1
100
AcDbArc
50
90.000000730830223
51
270.00000073083021
0
LINE
5
130
100
AcDbEntity
8
0
100
AcDbLine
10
-2.0127299650536696
20
11.705616613941352
30
-2.9582286590650363e-31
11
2.9872699604405204
21
11.705616677718327
31
0
0
LINE
5
131
100
AcDbEntity
8
0
100
AcDbLine
10
2.9872699604405204
20
11.705616677718327
30
0
11
2.9872699160578153
21
15.185141237840767
31
0
0
LINE
5
132
100
AcDbEntity
8
0
100
AcDbLine
10
2.9872699160578153
20
15.185141237840767
30
0
11
-25.700828883826109
21
16.700276066971604
31
-3.944304526105059e-30
0
ARC
5
133
100
AcDbEntity
8
0
100
AcDbCircle
10
-15.152718681421426
20
216.42192579774417
30
6.8915420569724402e-43
40
200.00000000005869
210
-1.9444806668624004e-31
220
2.7822384549755681e-32
230
1
100
AcDbArc
50
261.85716658550331
51
266.97678636709571
0
ENDSEC
0
SECTION
2
OBJECTS
0
DICTIONARY
5
C
100
AcDbDictionary
3
ACAD_GROUP
350
D
3
ACAD_MLINESTYLE
350
17
0
DICTIONARY
5
D
100
AcDbDictionary
0
DICTIONARY
5
1A
330
C
100
AcDbDictionary
0
DICTIONARY
5
17
100
AcDbDictionary
0
ENDSEC
0
EOF
