0
SECTION
2
HEADER
9
$INSUNITS
70
4
9
$ACADVER
1
AC1014
9
$HANDSEED
5
FFFF
0
ENDSEC
0
SECTION
2
TABLES
0
TABLE
2
VPORT
5
8
100
AcDbSymbolTable
0
ENDTAB
0
TABLE
2
LTYPE
5
5
100
AcDbSymbolTable
0
LTYPE
5
14
100
AcDbSymbolTableRecord
100
AcDbLinetypeTableRecord
2
BYBLOCK
70
0
0
LTYPE
5
15
100
AcDbSymbolTableRecord
100
AcDbLinetypeTableRecord
2
BYLAYER
70
0
0
ENDTAB
0
TABLE
2
LAYER
5
2
100
AcDbSymbolTable
70
2
0
LAYER
5
50
100
AcDbSymbolTableRecord
100
AcDbLayerTableRecord
2
0
70
0
6
CONTINUOUS
0
ENDTAB
0
TABLE
2
STYLE
5
3
100
AcDbSymbolTable
70
1
0
STYLE
5
11
100
AcDbSymbolTableRecord
100
AcDbTextStyleTableRecord
2
STANDARD
70
0
0
ENDTAB
0
TABLE
2
VIEW
5
6
100
AcDbSymbolTable
70
0
0
ENDTAB
0
TABLE
2
UCS
5
7
100
AcDbSymbolTable
70
0
0
ENDTAB
0
TABLE
2
APPID
5
9
100
AcDbSymbolTable
70
2
0
APPID
5
12
100
AcDbSymbolTableRecord
100
AcDbRegAppTableRecord
2
ACAD
70
0
0
ENDTAB
0
TABLE
2
DIMSTYLE
5
A
100
AcDbSymbolTable
70
1
0
ENDTAB
0
TABLE
2
BLOCK_RECORD
5
1
100
AcDbSymbolTable
70
1
0
BLOCK_RECORD
5
1F
100
AcDbSymbolTableRecord
100
AcDbBlockTableRecord
2
*MODEL_SPACE
0
BLOCK_RECORD
5
1B
100
AcDbSymbolTableRecord
100
AcDbBlockTableRecord
2
*PAPER_SPACE
0
ENDTAB
0
ENDSEC
0
SECTION
2
BLOCKS
0
BLOCK
5
20
100
AcDbEntity
100
AcDbBlockBegin
2
*MODEL_SPACE
0
ENDBLK
5
21
100
AcDbEntity
100
AcDbBlockEnd
0
BLOCK
5
1C
100
AcDbEntity
100
AcDbBlockBegin
2
*PAPER_SPACE
0
ENDBLK
5
1D
100
AcDbEntity
100
AcDbBlockEnd
0
ENDSEC
0
SECTION
2
ENTITIES
0
LWPOLYLINE
5
100
100
AcDbEntity
8
0
100
AcDbPolyline
90
40
70
1
43
0.0
10
16.186776653247847
20
-31.65803939098927
42
-0.14851055260667301
10
14.968316412092946
20
-29.019694782955391
42
0.32112329545757506
10
13.365242685982871
20
-27.330424697568908
42
-0.11734897268837707
10
11.254915399100739
20
-26.378478850420347
42
0.16584302865599773
10
5.1443962558192542
20
-24.294384095065652
10
0.83014327962252443
20
-24.294384096569953
42
0.16584302896394959
10
-5.2803758716955018
20
-26.378478863511443
42
-0.11734897222309708
10
-7.3907031477588037
20
-27.33042471292687
42
0.32112329396137579
10
-8.9937768660741941
20
-29.019694793548236
42
-0.14851055198257171
10
-10.212237103575102
20
-31.658039390398194
10
-11.519234950166419
20
-33.125839304426236
42
-0.91855910883864844
10
-18.535612573512289
20
-27.872717159805642
10
-12.342167719320587
20
-17.94595509514987
42
0.14036558426872356
10
-10.826289558372297
20
-12.652593530223468
10
-10.826289563304364
20
1.4922359236441027
42
0.19413977558997486
10
-12.226371858783601
20
4.9621916162400259
42
0.018352946726066365
10
-13.072924427851015
20
5.665841129736009
42
0.088263450515274955
10
-14.6813927243652
20
6.3593923019841503
10
-17.967787950164929
20
7.1324481094612775
42
-0.88599997021481047
10
-16.960437567160515
20
16.229437095518968
42
0.41115357939826913
10
-12.012730248152399
20
21.229163637335809
10
-12.012730251454496
20
30.699353187424183
42
0.12310562561766404
10
-12.600965546392597
20
33.052294363689725
42
-0.82574185835055969
10
-7.2574020758200541
20
37.375823777317656
42
0.17686315989682042
10
-4.0355046783206188
20
36.19935319020577
10
10.010044171575982
20
36.199353195103193
42
0.17686315989682289
10
13.231941568254994
20
37.375823784461907
42
-0.82574185835054514
10
18.575505041842671
20
33.052294374560475
42
0.12310562561765584
10
17.987269748545501
20
30.699353197884861
10
17.987269751847599
20
21.229163647796234
42
0.41115357939827052
10
22.934977074342338
20
16.229437109429746
42
-0.88599997021481092
10
23.942327463690706
20
7.1324481240745508
10
20.655932238430076
20
6.3593923143056124
42
0.088263450515271707
10
19.047463942399553
20
5.6658411409357772
42
0.018352946726019795
10
18.200911373822827
20
4.9621916268494317
42
0.19413977558996795
10
16.800829080763425
20
1.4922359332771573
10
16.800829085695486
20
-12.652593520590411
42
0.14036558426872789
10
18.316707250335181
20
-17.945955084459683
10
24.510152111126654
20
-27.872717144997804
42
-0.91855910883865299
10
17.493774492051124
20
-33.12583929405691
0
LWPOLYLINE
5
101
100
AcDbEntity
8
0
100
AcDbPolyline
90
8
70
1
43
0.0
10
0.48726976318802129
20
-11.2943840966895
10
5.4872697631879976
20
-11.294384094946095
42
0.41421356237309365
10
8.4872697621419473
20
-8.2943840939000495
10
8.4872697597011655
20
-1.2943840939000306
42
0.41421356237309609
10
5.4872697586551178
20
1.7056159050539312
10
0.48726975865513505
20
1.7056159033105256
42
0.41421356237309359
10
-2.5127302402988083
20
-1.2943840977355192
10
-2.5127302378580274
20
-8.2943840977355361
42
0.41421356237309692
0
LWPOLYLINE
5
102
100
AcDbEntity
8
0
100
AcDbPolyline
90
6
70
1
43
0.0
10
1.8282221784593466
20
23.145661003790082
10
-6.0908672543800577
20
17.514308514057845
42
0.73043597016154627
10
-5.5113434673872108
20
15.699353189691161
10
11.485882974938713
20
15.699353195617771
42
0.73043597016154027
10
12.065406760665871
20
17.5143085203886
10
4.1463173238993489
20
23.14566100459836
42
0.31930471153481732
0
LWPOLYLINE
5
103
100
AcDbEntity
8
0
100
AcDbPolyline
90
4
70
1
43
0.0
10
-2.0127303078309615
20
-21.29438409756121
42
-0.99999999999999989
10
-2.012730308877011
20
-18.294384097561213
10
7.9872698401345943
20
-18.294384094074395
42
-0.99999999999999989
10
7.9872698411806535
20
-21.29438409407441
0
LWPOLYLINE
5
104
100
AcDbEntity
8
0
100
AcDbPolyline
90
6
70
1
43
0.0
10
-7.0127302509117575
20
29.142811479772448
10
-7.0127302485878875
20
22.478117120785104
42
0.60930747350202019
10
-5.4332064619437244
20
21.663161796767092
10
-0.747093241942689
20
24.995508977894737
42
0.51595001709142196
10
-0.74709324251101161
20
26.625419627032244
10
-5.433206464835914
20
29.957766804891936
42
0.60930747350201198
0
LWPOLYLINE
5
105
100
AcDbEntity
8
0
100
AcDbPolyline
90
6
70
1
43
0.0
10
-1.5596172590419934
20
30.884397866500315
42
-0.73043597016154382
10
-0.98009347331483476
20
32.699353191271129
10
6.9546329690111053
20
32.699353194037826
42
-0.73043597016153894
10
7.5341567560039548
20
30.884397869671147
10
4.1463173220409972
20
28.475267603741095
42
-0.31930471153481188
10
1.8282221766010032
20
28.475267602932814
0
LWPOLYLINE
5
106
100
AcDbEntity
8
0
100
AcDbPolyline
90
4
70
1
43
0.0
10
-2.012730169279846
20
8.7056158726364821
10
7.9872696817085407
20
8.7056158761232947
42
0.99999999999999989
10
7.9872696806624894
20
11.705616144344198
10
-2.0127301703258995
20
11.705616140857389
42
0.99999999999999989
0
LWPOLYLINE
5
107
100
AcDbEntity
8
0
100
AcDbPolyline
90
6
70
1
43
0.0
10
6.7216327430113596
20
24.995508980498933
42
-0.51595001709142074
10
6.7216327424430391
20
26.625419629636433
10
11.407745962444073
20
29.957766810764056
42
-0.60930747350201597
10
12.987269749088238
20
29.142811486746069
10
12.987269751412107
20
22.478117127758726
42
-0.60930747350201175
10
11.407745965336266
20
21.663161802639209
0
CIRCLE
5
108
100
AcDbEntity
8
0
100
AcDbCircle
10
10.987269758132088
20
3.2056159069716612
30
-1.1102230246251565e-15
40
3.0000000000000022
210
9.8607613015095228e-32
220
1.9721522637401878e-31
230
1
0
CIRCLE
5
109
100
AcDbEntity
8
0
100
AcDbCircle
10
-14.804031512683123
20
-30.200902459564418
30
-1.1102230246251565e-15
40
1.5000000000000022
210
-2.7506249581366784e-40
220
3.944304526105059e-31
230
1
0
CIRCLE
5
110
100
AcDbEntity
8
0
100
AcDbCircle
10
-16.912225183650346
20
11.619829616543218
30
-1.1102230246251565e-15
40
1.5
210
9.8607613015095228e-32
220
1.9721522637401878e-31
230
1
0
CIRCLE
5
111
100
AcDbEntity
8
0
100
AcDbCircle
10
15.487269747150687
20
34.699353197013011
30
-1.1102230246251565e-15
40
1.5
210
9.8607613015095228e-32
220
1.9721522637401878e-31
230
1
0
CIRCLE
5
112
100
AcDbEntity
8
0
100
AcDbCircle
10
22.886764694046768
20
11.619829630420373
30
-1.1102230246251565e-15
40
1.5
210
9.8607613015095228e-32
220
1.9721522637401878e-31
230
1
0
CIRCLE
5
113
100
AcDbEntity
8
0
100
AcDbCircle
10
-7.0127302338481243
20
-19.794384099304619
30
-1.1102230246251565e-15
40
1.5000000000000022
210
-2.7506249581366784e-40
220
3.944304526105059e-31
230
1
0
CIRCLE
5
114
100
AcDbEntity
8
0
100
AcDbCircle
10
-5.0127302418678799
20
3.2056159013927621
30
-1.1102230246251565e-15
40
3.0000000000000022
210
9.8607613015095228e-32
220
1.9721522637401878e-31
230
1
0
CIRCLE
5
115
100
AcDbEntity
8
0
100
AcDbCircle
10
10.987269763711048
20
-12.794384093028352
30
-1.1102230246251565e-15
40
3.0000000000000022
210
9.8607613015095228e-32
220
1.9721522637401878e-31
230
1
0
CIRCLE
5
116
100
AcDbEntity
8
0
100
AcDbCircle
10
20.778571052243922
20
-30.200902447157446
30
-1.1102230246251565e-15
40
1.5
210
9.8607613015095228e-32
220
1.9721522637401878e-31
230
1
0
CIRCLE
5
117
100
AcDbEntity
8
0
100
AcDbCircle
10
-7.0127302443086768
20
10.20561590069541
30
-1.1102230246251565e-15
40
1.5000000000000022
210
-2.7506249581366784e-40
220
3.944304526105059e-31
230
1
0
CIRCLE
5
118
100
AcDbEntity
8
0
100
AcDbCircle
10
-9.5127302528492717
20
34.69935318829598
30
-1.1102230246251565e-15
40
1.5
210
9.8607613015095228e-32
220
1.9721522637401878e-31
230
1
0
CIRCLE
5
119
100
AcDbEntity
8
0
100
AcDbCircle
10
12.987269755691296
20
10.205615907669035
30
-1.1102230246251565e-15
40
1.5000000000000022
210
-2.7506249581366784e-40
220
3.944304526105059e-31
230
1
0
CIRCLE
5
120
100
AcDbEntity
8
0
100
AcDbCircle
10
12.987269766151845
20
-19.794384092330997
30
-1.1102230246251565e-15
40
1.5
210
9.8607613015095228e-32
220
1.9721522637401878e-31
230
1
0
CIRCLE
5
121
100
AcDbEntity
8
0
100
AcDbCircle
10
-5.0127302362889159
20
-12.794384098607253
30
-1.1102230246251565e-15
40
3.0000000000000022
210
9.8607613015095228e-32
220
1.9721522637401878e-31
230
1
0
ENDSEC
0
SECTION
2
OBJECTS
0
DICTIONARY
5
C
100
AcDbDictionary
3
ACAD_GROUP
350
D
3
ACAD_MLINESTYLE
350
17
0
DICTIONARY
5
D
100
AcDbDictionary
0
DICTIONARY
5
1A
330
C
100
AcDbDictionary
0
DICTIONARY
5
17
100
AcDbDictionary
0
ENDSEC
0
EOF
