0
SECTION
2
HEADER
9
$INSUNITS
70
4
9
$ACADVER
1
AC1014
9
$HANDSEED
5
FFFF
0
ENDSEC
0
SECTION
2
TABLES
0
TABLE
2
VPORT
5
8
100
AcDbSymbolTable
0
ENDTAB
0
TABLE
2
LTYPE
5
5
100
AcDbSymbolTable
0
LTYPE
5
14
100
AcDbSymbolTableRecord
100
AcDbLinetypeTableRecord
2
BYBLOCK
70
0
0
LTYPE
5
15
100
AcDbSymbolTableRecord
100
AcDbLinetypeTableRecord
2
BYLAYER
70
0
0
ENDTAB
0
TABLE
2
LAYER
5
2
100
AcDbSymbolTable
70
2
0
LAYER
5
50
100
AcDbSymbolTableRecord
100
AcDbLayerTableRecord
2
0
70
0
6
CONTINUOUS
0
ENDTAB
0
TABLE
2
STYLE
5
3
100
AcDbSymbolTable
70
1
0
STYLE
5
11
100
AcDbSymbolTableRecord
100
AcDbTextStyleTableRecord
2
STANDARD
70
0
0
ENDTAB
0
TABLE
2
VIEW
5
6
100
AcDbSymbolTable
70
0
0
ENDTAB
0
TABLE
2
UCS
5
7
100
AcDbSymbolTable
70
0
0
ENDTAB
0
TABLE
2
APPID
5
9
100
AcDbSymbolTable
70
2
0
APPID
5
12
100
AcDbSymbolTableRecord
100
AcDbRegAppTableRecord
2
ACAD
70
0
0
ENDTAB
0
TABLE
2
DIMSTYLE
5
A
100
AcDbSymbolTable
70
1
0
ENDTAB
0
TABLE
2
BLOCK_RECORD
5
1
100
AcDbSymbolTable
70
1
0
BLOCK_RECORD
5
1F
100
AcDbSymbolTableRecord
100
AcDbBlockTableRecord
2
*MODEL_SPACE
0
BLOCK_RECORD
5
1B
100
AcDbSymbolTableRecord
100
AcDbBlockTableRecord
2
*PAPER_SPACE
0
ENDTAB
0
ENDSEC
0
SECTION
2
BLOCKS
0
BLOCK
5
20
100
AcDbEntity
100
AcDbBlockBegin
2
*MODEL_SPACE
0
ENDBLK
5
21
100
AcDbEntity
100
AcDbBlockEnd
0
BLOCK
5
1C
100
AcDbEntity
100
AcDbBlockBegin
2
*PAPER_SPACE
0
ENDBLK
5
1D
100
AcDbEntity
100
AcDbBlockEnd
0
ENDSEC
0
SECTION
2
ENTITIES
0
CIRCLE
5
100
100
AcDbEntity
8
0
100
AcDbCircle
10
-5.0127302317561098
20
-12.79438410139681
30
0
40
1.5000000000000049
210
1.9721522630525295e-31
220
1.3753085379164034e-40
230
1
0
CIRCLE
5
101
100
AcDbEntity
8
0
100
AcDbCircle
10
-7.0127302477954787
20
10.205616069793324
30
2.2204460492503131e-15
40
1.5000000000000038
210
-0
220
0
230
1
0
CIRCLE
5
102
100
AcDbEntity
8
0
100
AcDbCircle
10
20.778571062846058
20
-30.20090244095401
30
0
40
1.500000000000006
210
-0
220
0
230
1
0
CIRCLE
5
103
100
AcDbEntity
8
0
100
AcDbCircle
10
-14.804031502080958
20
-30.20090246576817
30
0
40
1.5000000000000038
210
-0
220
0
230
1
0
CIRCLE
5
104
100
AcDbEntity
8
0
100
AcDbCircle
10
12.987269773125414
20
-19.794384088844236
30
0
40
1.500000000000006
210
-0
220
0
230
1
0
CIRCLE
5
105
100
AcDbEntity
8
0
100
AcDbCircle
10
12.987269752204503
20
10.205616083740681
30
0
40
1.5000000000000049
210
1.9721522630525295e-31
220
1.3753085379164034e-40
230
1
0
CIRCLE
5
106
100
AcDbEntity
8
0
100
AcDbCircle
10
-5.0127302429139329
20
3.2056158986032917
30
2.2204460492503131e-15
40
1.5000000000000049
210
1.9721522630525295e-31
220
1.3753085379164034e-40
230
1
0
CIRCLE
5
107
100
AcDbEntity
8
0
100
AcDbCircle
10
10.987269768243861
20
-12.794384090238927
30
0
40
1.500000000000006
210
-0
220
0
230
1
0
CIRCLE
5
108
100
AcDbEntity
8
0
100
AcDbCircle
10
-16.912225187630249
20
11.619829609604601
30
2.2204460492503131e-15
40
1.5000000000000038
210
-0
220
0
230
1
0
CIRCLE
5
109
100
AcDbEntity
8
0
100
AcDbCircle
10
10.987269920926616
20
-60.794384939605415
30
0
40
1.5000000000000038
210
-0
220
0
230
1
0
CIRCLE
5
110
100
AcDbEntity
8
0
100
AcDbCircle
10
-5.012730317491946
20
-60.794384950763288
30
0
40
1.5000000000000038
210
-0
220
0
230
1
0
CIRCLE
5
111
100
AcDbEntity
8
0
100
AcDbCircle
10
-7.0127302268745675
20
-19.794384102791589
30
0
40
1.500000000000006
210
-0
220
0
230
1
0
CIRCLE
5
112
100
AcDbEntity
8
0
100
AcDbCircle
10
22.886764690066833
20
11.619829637359134
30
0
40
1.5000000000000038
210
-0
220
0
230
1
0
CIRCLE
5
113
100
AcDbEntity
8
0
100
AcDbCircle
10
10.987269757086047
20
3.2056159097611752
30
0
40
1.5000000000000049
210
1.9721522630525295e-31
220
1.3753085379164034e-40
230
1
0
CIRCLE
5
114
100
AcDbEntity
8
0
100
AcDbCircle
10
12.987269893038874
20
-49.294384088844268
30
0
40
1.000000000000004
210
0
220
0
230
1
0
LWPOLYLINE
5
115
100
AcDbEntity
8
0
100
AcDbPolyline
90
12
70
1
43
0.0
10
9.4415476165567256
20
-47.383475080456414
42
-0.18780597862822307
10
10.446171344871951
20
-52.362546065451319
10
9.9040490415506
20
-55.479749583623466
42
-0.36463347474936486
10
5.9632020148891129
20
-58.794384943108838
10
0.011337585756331231
20
-58.794384947259466
42
-0.36463347474936664
10
-3.9295094455281592
20
-55.47974959327054
10
-4.4716317531971832
20
-52.36254607585451
42
-0.18780597862822435
10
-3.4670080318264307
20
-47.383475089458365
10
1.9547169605863237
20
-38.931962588317184
42
-0.25545191799184236
10
2.7964110425311843
20
-38.47191728201387
10
3.1781285297698831
20
-38.471917281747679
42
-0.2554519179918317
10
4.0198226123563741
20
-38.931962586877049
0
LWPOLYLINE
5
116
100
AcDbEntity
8
0
100
AcDbPolyline
90
11
70
1
43
0.0
10
-5.0127302178338029
20
-32.75848571653458
42
-0.10314796225363489
10
-4.7210635521425974
20
-31.359701522031628
42
0.10314796225364818
10
-4.5127302195060253
20
-30.360569954529531
10
-4.5127302205796678
20
-28.821011549021893
42
-0.75084597967705602
10
-2.6683683857795275
20
-28.285238189586938
10
-0.27751840318831589
20
-32.053141996504984
42
-0.14230493328082705
10
0.033757927211414407
20
-33.12468871258541
10
0.033757929065937053
20
-35.784009610998211
42
-0.14357024049226721
10
-0.28285390564962376
20
-36.8639189997863
10
-3.1710361295654792
20
-41.366085414563436
42
-0.74890875014294989
10
-5.0127302122077078
20
-40.826130721564141
0
LWPOLYLINE
5
117
100
AcDbEntity
8
0
100
AcDbPolyline
90
8
70
1
43
0.0
10
3.9969801303346024
20
-30.007690639325368
42
-0.25677322546141695
10
3.1526182954845723
20
-30.471917281765442
10
2.8219212656586388
20
-30.471917281996056
42
-0.25677322546141507
10
1.9775594301611432
20
-30.007690640733642
10
-0.67321289646113391
20
-25.830157456519323
42
-0.5913769958503865
10
0.17114893764164307
20
-24.294384097781734
10
5.8033906148855721
20
-24.294384093853985
42
-0.59137699585039516
10
6.6477524511303354
20
-25.830157451413921
0
LWPOLYLINE
5
118
100
AcDbEntity
8
0
100
AcDbPolyline
90
4
70
1
43
0.0
10
-2.0127301722436552
20
8.7056158708930802
10
7.9872696787447328
20
8.7056158778667569
42
0.99999999999999989
10
7.9872696766526339
20
11.705616146087667
10
-2.012730174335748
20
11.705616139113991
42
0.99999999999999989
0
LWPOLYLINE
5
119
100
AcDbEntity
8
0
100
AcDbPolyline
90
4
70
1
43
0.0
10
-2.0127303003342978
20
-21.294384099304693
10
7.9872698486773182
20
-21.294384092331022
42
0.99999999999999989
10
7.987269846585221
20
-18.294384092331008
10
-2.0127303024263847
20
-18.294384099304686
42
0.99999999999999989
0
CIRCLE
5
120
100
AcDbEntity
8
0
100
AcDbCircle
10
-7.0127303056433625
20
-49.294384102791618
30
0
40
1.0000000000000029
210
0
220
0
230
1
0
LWPOLYLINE
5
121
100
AcDbEntity
8
0
100
AcDbPolyline
90
8
70
1
43
0.0
10
9.4872697651057436
20
-8.29438409128492
10
9.4872697602241853
20
-1.2943840912848783
42
0.41421356237309404
10
6.4872697581320873
20
1.7056159066230276
10
-0.51273024186788507
20
1.7056159017414534
42
0.41421356237309648
10
-3.5127302397757942
20
-1.2943841003506584
10
-3.5127302348942342
20
-8.2943841003507028
42
0.41421356237309476
10
-0.51273023280213548
20
-11.294384098258607
10
6.4872697671978363
20
-11.294384093377035
42
0.41421356237309681
0
LWPOLYLINE
5
122
100
AcDbEntity
8
0
100
AcDbPolyline
90
11
70
1
43
0.0
10
8.6429079438729115
20
-28.285238181698826
42
-0.75084597967705058
10
10.487269779420302
20
-28.821011538561379
10
10.487269780493937
20
-30.360569944069017
42
0.10314796225364622
10
10.695603114524033
20
-31.359701511280548
42
-0.10314796225363758
10
10.987269782166164
20
-32.758485705376692
10
10.987269787792266
20
-40.826130710406254
42
-0.74890875014296632
10
9.1455757059031306
20
-41.366085405974246
10
6.2573934757079712
20
-36.863918995225347
42
-0.14357024049226222
10
5.9407816394862216
20
-35.784009606878854
10
5.9407816376317024
20
-33.124688708466039
42
-0.14230493328082772
10
6.2520579665369134
20
-32.053141991951456
0
CIRCLE
5
123
100
AcDbEntity
8
0
100
AcDbCircle
10
-7.0127302202495478
20
-29.294384102791557
30
0
40
1.0000000000000029
210
0
220
0
230
1
0
CIRCLE
5
124
100
AcDbEntity
8
0
100
AcDbCircle
10
12.987269779750418
20
-29.294384088844208
30
0
40
1.000000000000004
210
0
220
0
230
1
0
LWPOLYLINE
5
125
100
AcDbEntity
8
0
100
AcDbPolyline
90
38
70
1
43
0.0
10
15.153936525722067
20
-48.047164900883637
42
-0.13132596618545858
10
14.487269791088446
20
-45.552726528449114
10
14.487269782815492
20
-33.689579910978281
42
-0.6893170602384715
10
17.107516689660052
20
-32.692059550388002
10
17.493774503673212
20
-33.125839288998769
42
0.91855910883865755
10
24.510152120917073
20
-27.872717137493119
10
18.316707256664305
20
-17.945955079114551
42
-0.14036558426872414
10
16.800829090178919
20
-12.652593515773878
10
16.800829080314795
20
1.4922359380937684
42
-0.34805588049401298
10
20.655932236284347
20
6.3593923204664593
10
23.94232746127544
20
7.1324481313813237
42
0.91461664077588312
10
22.64363815462189
20
16.2232734604024
10
5.6242979361165784
20
15.324412890139191
42
-0.026388645099866586
10
0.35024156115294858
20
15.324412886461243
10
-16.669098658605904
20
16.223273432986968
42
0.9146166407758739
10
-17.967787952580217
20
7.1324481021545623
10
-14.681392726510929
20
6.3593922958233495
42
-0.34805588049401198
10
-10.826289563752994
20
1.4922359188275047
10
-10.826289553888868
20
-12.652593535040101
42
-0.14036558426873344
10
-12.342167712991433
20
-17.945955100495034
10
-18.535612563721898
20
-27.872717167310448
42
0.91855910883866809
10
-11.51923493854432
20
-33.125839309484554
10
-11.132977125420334
20
-32.692059570082009
42
-0.68931706023847084
10
-8.5127302171845045
20
-33.689579927017739
10
-8.5127302089115506
20
-45.55272654448855
42
-0.13132596618547079
10
-9.1793969400660895
20
-48.047164917852889
42
0.30398455814904868
10
-8.9905913675604605
20
-50.823457554183733
42
-0.11801763878722016
10
-8.0346206357745142
20
-52.94604404093387
10
-7.5110932617194131
20
-55.694563130453048
42
-0.17686315989682649
10
-8.0639297644880301
20
-59.079689078414283
42
0.7946895298754042
10
-3.0272728058655978
20
-63.676737890555103
42
-0.15195139245638467
10
-0.19090493560046107
20
-62.79438494740053
10
6.1654445418245896
20
-62.79438494296781
42
-0.15195139245638364
10
9.0018124133203532
20
-63.676737882166407
42
0.79468952987539354
10
14.038469365531229
20
-59.079689063000899
42
-0.1768631598968155
10
13.485632858041374
20
-55.694563115810951
10
14.009160228263092
20
-52.946044025561264
42
-0.11801763878723794
10
14.965130957088604
20
-50.823457537477807
42
0.30398455814904884
0
ENDSEC
0
SECTION
2
OBJECTS
0
DICTIONARY
5
C
100
AcDbDictionary
3
ACAD_GROUP
350
D
3
ACAD_MLINESTYLE
350
17
0
DICTIONARY
5
D
100
AcDbDictionary
0
DICTIONARY
5
1A
330
C
100
AcDbDictionary
0
DICTIONARY
5
17
100
AcDbDictionary
0
ENDSEC
0
EOF
