0
SECTION
2
HEADER
9
$INSUNITS
70
4
9
$ACADVER
1
AC1014
9
$HANDSEED
5
FFFF
0
ENDSEC
0
SECTION
2
TABLES
0
TABLE
2
VPORT
5
8
100
AcDbSymbolTable
0
ENDTAB
0
TABLE
2
LTYPE
5
5
100
AcDbSymbolTable
0
LTYPE
5
14
100
AcDbSymbolTableRecord
100
AcDbLinetypeTableRecord
2
BYBLOCK
70
0
0
LTYPE
5
15
100
AcDbSymbolTableRecord
100
AcDbLinetypeTableRecord
2
BYLAYER
70
0
0
ENDTAB
0
TABLE
2
LAYER
5
2
100
AcDbSymbolTable
70
2
0
LAYER
5
50
100
AcDbSymbolTableRecord
100
AcDbLayerTableRecord
2
0
70
0
6
CONTINUOUS
0
ENDTAB
0
TABLE
2
STYLE
5
3
100
AcDbSymbolTable
70
1
0
STYLE
5
11
100
AcDbSymbolTableRecord
100
AcDbTextStyleTableRecord
2
STANDARD
70
0
0
ENDTAB
0
TABLE
2
VIEW
5
6
100
AcDbSymbolTable
70
0
0
ENDTAB
0
TABLE
2
UCS
5
7
100
AcDbSymbolTable
70
0
0
ENDTAB
0
TABLE
2
APPID
5
9
100
AcDbSymbolTable
70
2
0
APPID
5
12
100
AcDbSymbolTableRecord
100
AcDbRegAppTableRecord
2
ACAD
70
0
0
ENDTAB
0
TABLE
2
DIMSTYLE
5
A
100
AcDbSymbolTable
70
1
0
ENDTAB
0
TABLE
2
BLOCK_RECORD
5
1
100
AcDbSymbolTable
70
1
0
BLOCK_RECORD
5
1F
100
AcDbSymbolTableRecord
100
AcDbBlockTableRecord
2
*MODEL_SPACE
0
BLOCK_RECORD
5
1B
100
AcDbSymbolTableRecord
100
AcDbBlockTableRecord
2
*PAPER_SPACE
0
ENDTAB
0
ENDSEC
0
SECTION
2
BLOCKS
0
BLOCK
5
20
100
AcDbEntity
100
AcDbBlockBegin
2
*MODEL_SPACE
0
ENDBLK
5
21
100
AcDbEntity
100
AcDbBlockEnd
0
BLOCK
5
1C
100
AcDbEntity
100
AcDbBlockBegin
2
*PAPER_SPACE
0
ENDBLK
5
1D
100
AcDbEntity
100
AcDbBlockEnd
0
ENDSEC
0
SECTION
2
ENTITIES
0
CIRCLE
5
100
100
AcDbEntity
8
0
100
AcDbCircle
10
-7.0127296378018
20
-19.794384103983759
30
0
40
1.5000000000000004
210
-1.9721522630525295e-31
220
-1.3753124790683408e-40
230
1
0
CIRCLE
5
101
100
AcDbEntity
8
0
100
AcDbCircle
10
15.48727034319727
20
34.699353192333781
30
0
40
1.5000000000000004
210
-1.9721522630525295e-31
220
-1.3753124790683408e-40
230
1
0
CIRCLE
5
102
100
AcDbEntity
8
0
100
AcDbCircle
10
-7.012729648262237
20
10.205616068600946
30
0
40
1.5000000000000027
210
-1.9721522630525295e-31
220
-1.3753124790683408e-40
230
1
0
CIRCLE
5
103
100
AcDbEntity
8
0
100
AcDbCircle
10
10.987270495703436
20
-60.794384947073667
30
0
40
1.5000000000000027
210
-1.9721522630525295e-31
220
-1.3753124790683408e-40
230
1
0
CIRCLE
5
104
100
AcDbEntity
8
0
100
AcDbCircle
10
12.987270362198213
20
-19.794384097010138
30
0
40
1.5000000000000016
210
-1.972152261677217e-31
220
-1.9721522644278422e-31
230
1
0
CIRCLE
5
105
100
AcDbEntity
8
0
100
AcDbCircle
10
-9.512729656802744
20
34.699353183616758
30
0
40
1.5000000000000004
210
-1.9721522630525295e-31
220
-1.3753124790683408e-40
230
1
0
CIRCLE
5
106
100
AcDbEntity
8
0
100
AcDbCircle
10
12.987270351737781
20
10.205616075574572
30
0
40
1.5000000000000027
210
-1.9721522630525295e-31
220
-1.3753124790683408e-40
230
1
0
CIRCLE
5
107
100
AcDbEntity
8
0
100
AcDbCircle
10
-5.0127297427151785
20
-60.794384952652543
30
0
40
1.5000000000000004
210
-1.9721522630525295e-31
220
-1.3753124790683408e-40
230
1
0
LWPOLYLINE
5
108
100
AcDbEntity
8
0
100
AcDbPolyline
90
8
70
1
43
0.0
10
5.9872703565529752
20
-3.6040987272042009
42
-0.14806873843368018
10
6.3231697645448284
20
-2.4946983390550521
10
9.6552200643655723
20
2.5033771432050296
42
-0.74205597021012104
10
11.487270360369637
20
1.9486769498278256
10
11.487270365072
20
-11.537444972309432
42
-0.74205597021012693
10
9.6552200694547601
20
-12.092145166964245
10
6.3231697661485411
20
-7.0940696870278073
42
-0.14806873843368176
10
5.9872703573830304
20
-5.9846692991129071
0
LWPOLYLINE
5
109
100
AcDbEntity
8
0
100
AcDbPolyline
90
8
70
1
43
0.0
10
9.6455762824252052
20
-26.9432710190185
42
-0.74890875014295322
10
11.487270364879155
20
-27.483225712659983
10
11.487270369784756
20
-41.552263648077634
42
-0.75084597967705669
10
9.6429085347978098
20
-42.088037006869492
10
6.3450348426017058
20
-36.890692573041534
42
-0.14230493328082772
10
6.0337585125756013
20
-35.819145856852565
10
6.033758511648343
20
-33.159824958439785
42
-0.14357024049225792
10
6.3503703467404566
20
-32.079915569762115
0
LWPOLYLINE
5
110
100
AcDbEntity
8
0
100
AcDbPolyline
90
12
70
1
43
0.0
10
3.2455951732033936
20
-38.471917286469719
42
-0.256773225461425
10
4.0899570085390362
20
-38.936143928026546
10
8.763888471937566
20
-46.302111803894867
42
-0.38773886715233485
10
8.2961016955762119
20
-48.957739674578463
10
6.5954368668125687
20
-50.268533902594747
42
-0.25017799095853477
10
4.7379054136135323
20
-50.58043464921343
42
0.16327830214143707
10
1.2390613602142158
20
-50.579620715637986
42
-0.25022347484885477
10
-0.61859588433769486
20
-50.26664657553151
10
-2.3095051633623465
20
-48.961655068547422
42
-0.38898273988768955
10
-2.7709484526407255
20
-46.298441944411984
10
1.9547175429860868
20
-38.931962592636189
42
-0.25545191799184541
10
2.7964116250913618
20
-38.471917286626336
0
LWPOLYLINE
5
111
100
AcDbEntity
8
0
100
AcDbPolyline
90
8
70
1
43
0.0
10
-0.012729642616970821
20
-5.9846693012049741
42
-0.14806873843368518
10
-0.34862905060883798
20
-7.0940696893541153
10
-3.6806793504295836
20
-12.092145171614208
42
-0.7420559702101216
10
-5.5127296464336561
20
-11.537444978237001
10
-5.5127296511360155
20
1.9486769439002558
42
-0.74205597021012093
10
-3.6806793555187687
20
2.5033771385550656
10
-0.34862905221254986
20
-2.4946983413813806
42
-0.14806873843368085
10
-0.012729643447032257
20
-3.6040987292962772
0
LWPOLYLINE
5
112
100
AcDbEntity
8
0
100
AcDbPolyline
90
9
70
1
43
0.0
10
-5.5127296313574412
20
-38.276434911029597
10
-5.5127296301966444
20
-41.605542488333882
42
0.74890875014295288
10
-3.6710355477426941
20
-42.145497181975358
10
-0.2828533225287555
20
-36.863919003325066
42
0.14357024049226486
10
0.033758512563341309
20
-35.784009614647388
10
0.033758511636088617
20
-33.124688716234608
42
0.14230493328082813
10
-0.27751781839001677
20
-32.053142000045639
10
-3.550200474847566
20
-26.895497840272423
42
0.74659730833797355
10
-5.3945030148511828
20
-27.420381458095431
0
CIRCLE
5
113
100
AcDbEntity
8
0
100
AcDbCircle
10
2.9872703747507234
20
-55.794384875357238
30
0
40
3.5000000000000089
210
-1.9721522630525295e-31
220
-6.8765240785868152e-41
230
1
0
LWPOLYLINE
5
114
100
AcDbEntity
8
0
100
AcDbPolyline
90
6
70
1
43
0.0
10
-4.4977111568613051
20
-52.212586172737147
42
-0.68423792550373175
10
-2.9015269618630257
20
-51.249593143500334
10
-2.0972058086447345
20
-51.870343343914982
42
-0.36966381332932974
10
-1.8319553816579264
20
-53.143901314048641
42
0.048386387069561963
10
-2.2515129641260878
20
-54.119526932633057
42
-0.78413488150718746
10
-4.1892307829235582
20
-53.986348467842369
0
LWPOLYLINE
5
115
100
AcDbEntity
8
0
100
AcDbPolyline
90
6
70
1
43
0.0
10
-3.7365904962348107
20
7.9955707819554007
10
1.323169763533425
20
0.40593035437497271
42
0.53518376019581682
10
4.6513709467760487
20
0.40593035553545431
10
9.7309048881237601
20
8.0252313171456962
42
0.59987549974052401
10
8.896341718367303
20
9.5799283535993531
10
-2.9070530743699532
20
9.5502678189892958
42
0.59816821761147854
0
LWPOLYLINE
5
116
100
AcDbEntity
8
0
100
AcDbPolyline
90
6
70
1
43
0.0
10
8.8753711442029495
20
-51.256107625167424
10
8.0742430857522951
20
-51.873580284775741
42
0.36966381332934217
10
7.8081821236650759
20
-53.146969171471753
42
-0.048226896624760346
10
8.2260537124595743
20
-54.119526928979688
42
0.78413488150720911
10
10.163771531164169
20
-53.986348462837753
10
10.471051348312233
20
-52.219489362538269
42
0.6840043351576407
0
LWPOLYLINE
5
117
100
AcDbEntity
8
0
100
AcDbPolyline
90
14
70
1
43
0.0
10
4.1127994812255944
20
-30.011871980450991
10
8.7034406003737459
20
-22.855872583347505
42
0.15444851709099902
10
9.490440878747652
20
-19.943325574345796
42
-0.038713452062916986
10
9.5092812395063149
20
-19.402476375171339
42
0.17686315989682097
10
8.7009768280326725
20
-16.069107229585239
10
4.6513709504025567
20
-9.9946983827841596
42
0.53518376019581582
10
1.3231697671599303
20
-9.9946983839446393
10
-2.7264361062341402
20
-16.069107233569831
42
0.17686315989681844
10
-3.5347405153832034
20
-19.402476379719566
42
-0.031217011080809546
10
-3.5130082828347167
20
-19.838547862738793
42
0.14552491108644744
10
-2.7352155221022123
20
-22.580505738890384
10
1.9775600156726647
20
-30.007690645060627
42
0.25677322546141895
10
2.8219218510082995
20
-30.471917286617447
10
3.2711053991203265
20
-30.47191728646083
42
0.25545191799184097
0
LWPOLYLINE
5
118
100
AcDbEntity
8
0
100
AcDbPolyline
90
42
70
1
43
0.0
10
14.038469940905916
20
-59.079689071533025
42
-0.85795721548801973
10
8.5923418969398178
20
-63.346700955491144
42
0.12793815120953814
10
6.3818962912269708
20
-62.141705244460788
10
5.4047313550067315
20
-61.897798618142339
42
0.12270576904435569
10
0.56930658858025218
20
-61.895780623815817
10
-0.3989490316288048
20
-62.13660507961761
42
0.12832891595071849
10
-2.6160071008062982
20
-63.3450163603164
42
-0.85826243987859885
10
-8.0639291891134164
20
-59.079689079239685
42
0.17686315989681936
10
-7.5110926851645132
20
-55.694563131471348
10
-9.0127296280329432
20
-47.810968088748368
10
-9.0127296361205218
20
-24.616209485177603
42
0.15195139245637365
10
-9.8950825782859795
20
-21.779841614604983
42
-0.31108550841912802
10
-9.8950825796705608
20
-17.808926595372583
42
0.15195139245637462
10
-9.0127296394830729
20
-14.972558724184635
10
-9.0127296459850168
20
3.674668081380799
42
0.13959913241686153
10
-10.512729647821805
20
8.942494957284147
42
-0.13959913241686081
10
-12.012729649658604
20
14.210321833187496
10
-12.012729655408023
20
30.699353182745057
42
0.12310562561766016
10
-12.600964950346093
20
33.052294359010538
42
-1.6666666666666685
10
-6.4244943621107993
20
33.052294361164144
42
0.12310562561766009
10
-7.0127296554080196
20
30.699353184488459
10
-7.0127296514655599
20
19.392575100617965
42
0.19923892539738719
10
-6.4251652258539487
20
17.976585783487632
10
-3.6003067041926169
20
15.158816879178563
42
0.19923892539739113
10
-2.1828453822994454
20
14.574812511550714
10
8.160330091427701
20
14.60080368777615
42
0.19858585016624866
10
9.5712936617506177
20
15.188361798843289
10
12.403259666345662
20
18.027453141253108
42
0.19858585016624766
10
12.987270348517958
20
19.439888716338864
10
12.987270344591991
20
30.699353191462077
42
0.12310562561766009
10
12.399035049653921
20
33.052294367727555
42
-1.6666666666666685
10
18.575505637889215
20
33.052294369881182
42
0.12310562561766027
10
17.987270344592009
20
30.699353193205489
10
17.987270350341412
20
14.210321843647939
42
-0.13959913241686001
10
16.487270352178214
20
8.9424949666985469
42
0.1395991324168625
10
14.987270354015001
20
3.6746680897491579
10
14.987270360516941
20
-14.972558715816294
42
0.15195139245637385
10
15.869623302682395
20
-17.80892658638891
42
-0.31108550841912735
10
15.869623304066989
20
-21.779841605621311
42
0.15195139245637404
10
14.987270363879501
20
-24.616209476809246
10
14.987270371967076
20
-47.810968080380036
10
13.485633434596355
20
-55.694563124150207
42
0.17686315989681725
0
ENDSEC
0
SECTION
2
OBJECTS
0
DICTIONARY
5
C
100
AcDbDictionary
3
ACAD_GROUP
350
D
3
ACAD_MLINESTYLE
350
17
0
DICTIONARY
5
D
100
AcDbDictionary
0
DICTIONARY
5
1A
330
C
100
AcDbDictionary
0
DICTIONARY
5
17
100
AcDbDictionary
0
ENDSEC
0
EOF
